<svg xmlns="http://www.w3.org/2000/svg" xmlns:xlink="http://www.w3.org/1999/xlink" width="500" zoomAndPan="magnify" viewBox="0 0 375 374.999991" height="500" preserveAspectRatio="xMidYMid meet" version="1.0"><defs><clipPath id="1d37d13eff"><path d="M 275 214 L 374.46875 214 L 374.46875 235 L 275 235 Z M 275 214 " clip-rule="nonzero"/></clipPath><clipPath id="70a96cef37"><path d="M 0.21875 214 L 101 214 L 101 235 L 0.21875 235 Z M 0.21875 214 " clip-rule="nonzero"/></clipPath><clipPath id="a48598ed2f"><path d="M 177 37.5 L 198 37.5 L 198 138 L 177 138 Z M 177 37.5 " clip-rule="nonzero"/></clipPath><clipPath id="24754ff1fa"><path d="M 110 146 L 267 146 L 267 268.5 L 110 268.5 Z M 110 146 " clip-rule="nonzero"/></clipPath><clipPath id="729468f231"><path d="M 96 225 L 281 225 L 281 340.453125 L 96 340.453125 Z M 96 225 " clip-rule="nonzero"/></clipPath></defs><g clip-path="url(#1d37d13eff)"><path fill="#fdbb11" d="M 365.203125 214.675781 L 275.6875 219.585938 C 275.6875 221.242188 275.6875 222.835938 275.6875 224.65625 C 275.6875 226.476562 275.6875 227.910156 275.6875 229.503906 L 365.074219 234.476562 L 374.566406 224.722656 Z M 365.203125 214.675781 " fill-opacity="1" fill-rule="nonzero"/></g><path fill="#fdbb11" d="M 273.542969 244.65625 L 340.359375 260.195312 L 354.246094 245.761719 L 275.167969 235.582031 C 274.792969 238.636719 274.25 241.660156 273.542969 244.65625 Z M 273.542969 244.65625 " fill-opacity="1" fill-rule="nonzero"/><path fill="#fdbb11" d="M 275.136719 213.570312 L 354.148438 203.328125 L 354.472656 203.328125 L 343.613281 191.882812 L 273.933594 206.578125 C 274.421875 208.789062 274.84375 211.164062 275.136719 213.570312 Z M 275.136719 213.570312 " fill-opacity="1" fill-rule="nonzero"/><path fill="#fdbb11" d="M 102.578125 205.050781 L 34.296875 189.214844 L 20.507812 203.652344 L 101.015625 214.023438 C 101.367188 211.003906 101.886719 208.011719 102.578125 205.050781 Z M 102.578125 205.050781 " fill-opacity="1" fill-rule="nonzero"/><g clip-path="url(#70a96cef37)"><path fill="#fdbb11" d="M 100.367188 224.691406 C 100.367188 223.097656 100.367188 221.4375 100.367188 219.941406 L 9.777344 214.902344 L 0.21875 224.789062 L 9.648438 234.738281 L 100.429688 229.699219 C 100.398438 228.070312 100.367188 226.378906 100.367188 224.691406 Z M 100.367188 224.691406 " fill-opacity="1" fill-rule="nonzero"/></g><path fill="#fdbb11" d="M 101.015625 235.84375 L 20.671875 246.019531 L 20.378906 246.019531 L 31.238281 257.464844 L 102.121094 242.574219 C 101.730469 240.363281 101.339844 238.019531 101.015625 235.84375 Z M 101.015625 235.84375 " fill-opacity="1" fill-rule="nonzero"/><g clip-path="url(#a48598ed2f)"><path fill="#fdbb11" d="M 188.09375 136.964844 C 189.523438 136.964844 190.953125 136.964844 192.382812 136.964844 L 197.390625 47.058594 L 187.507812 37.5 L 177.589844 46.929688 L 182.597656 137.09375 C 184.417969 137.007812 186.25 136.964844 188.09375 136.964844 Z M 188.09375 136.964844 " fill-opacity="1" fill-rule="nonzero"/></g><path fill="#fdbb11" d="M 176.550781 137.710938 L 166.308594 57.953125 L 166.308594 57.660156 L 154.796875 68.519531 L 169.527344 138.949219 C 171.835938 138.296875 174.175781 138.035156 176.550781 137.710938 Z M 176.550781 137.710938 " fill-opacity="1" fill-rule="nonzero"/><path fill="#fdbb11" d="M 223.078125 71.738281 L 208.675781 57.789062 L 198.5625 137.582031 C 201.59375 137.925781 204.59375 138.433594 207.570312 139.109375 Z M 223.078125 71.738281 " fill-opacity="1" fill-rule="nonzero"/><path fill="#fdbb11" d="M 141.171875 150.554688 L 104.269531 91.441406 L 84.238281 91.867188 L 133.660156 155.886719 C 136.101562 153.96875 138.605469 152.179688 141.171875 150.554688 Z M 141.171875 150.554688 " fill-opacity="1" fill-rule="nonzero"/><path fill="#fdbb11" d="M 118.476562 171.300781 L 54.453125 122.039062 L 54.226562 121.84375 L 53.804688 137.613281 L 114.378906 177.085938 C 115.679688 175.105469 117.046875 173.1875 118.476562 171.300781 Z M 118.476562 171.300781 " fill-opacity="1" fill-rule="nonzero"/><path fill="#fdbb11" d="M 129.175781 159.691406 L 68.730469 92.15625 L 55.039062 92.449219 L 54.648438 106.140625 L 122.28125 166.683594 C 124.457031 164.230469 126.753906 161.902344 129.175781 159.691406 Z M 129.175781 159.691406 " fill-opacity="1" fill-rule="nonzero"/><path fill="#fdbb11" d="M 253.121094 165.804688 L 319.972656 106.007812 L 319.714844 92.320312 L 305.992188 91.929688 L 246.066406 158.847656 C 248.546875 161.035156 250.898438 163.355469 253.121094 165.804688 Z M 253.121094 165.804688 " fill-opacity="1" fill-rule="nonzero"/><path fill="#fdbb11" d="M 262.355469 177.964844 L 320.65625 141.546875 L 320.234375 121.519531 L 257.089844 170.421875 C 258.976562 172.84375 260.734375 175.359375 262.355469 177.964844 Z M 262.355469 177.964844 " fill-opacity="1" fill-rule="nonzero"/><path fill="#fdbb11" d="M 290.253906 91.734375 L 290.449219 91.507812 L 274.679688 91.085938 L 235.660156 150.878906 C 237.679688 152.179688 239.628906 153.578125 241.546875 155.011719 Z M 290.253906 91.734375 " fill-opacity="1" fill-rule="nonzero"/><g clip-path="url(#24754ff1fa)"><path fill="#fdbb11" d="M 266.257812 217.4375 C 266.257812 217.015625 266.257812 216.59375 266.257812 216.171875 C 266.257812 215.75 266.257812 215.945312 266.257812 215.8125 C 266.097656 214.382812 265.902344 212.984375 265.671875 211.585938 C 264.492188 204.660156 262.414062 198.011719 259.4375 191.644531 C 256.464844 185.277344 252.699219 179.417969 248.148438 174.0625 L 247.855469 173.707031 L 247.335938 173.054688 C 247.234375 172.898438 247.113281 172.757812 246.976562 172.632812 C 245.804688 171.300781 244.601562 170.03125 243.335938 168.796875 C 239.078125 164.589844 234.398438 160.925781 229.289062 157.804688 L 228.996094 157.804688 L 227.824219 157.089844 L 227.339844 156.796875 L 226.328125 156.214844 L 225.808594 155.921875 L 224.769531 155.367188 L 224.25 155.109375 L 223.304688 154.554688 L 222.816406 154.292969 L 221.710938 153.742188 L 221.289062 153.742188 L 220.054688 153.15625 C 217.519531 152.027344 214.929688 151.039062 212.285156 150.199219 L 210.789062 149.742188 L 210.265625 149.742188 L 208.804688 149.320312 L 208.578125 149.320312 L 207.082031 148.929688 C 205.910156 148.636719 204.707031 148.34375 203.503906 148.117188 L 201.488281 147.757812 C 198.902344 147.3125 196.300781 147 193.683594 146.816406 L 185.066406 146.816406 C 183.117188 146.816406 181.199219 147.042969 179.3125 147.269531 L 177.753906 147.269531 C 171.023438 148.175781 164.519531 149.921875 158.242188 152.507812 L 156.78125 153.125 L 155.382812 153.742188 L 155.152344 153.742188 L 153.789062 154.425781 L 152.390625 155.140625 C 147.277344 157.785156 142.519531 160.960938 138.117188 164.667969 L 137.53125 165.15625 L 136.945312 165.675781 L 135.96875 166.519531 L 134.214844 168.144531 L 134.214844 168.339844 L 132.847656 169.675781 L 132.6875 169.835938 L 131.289062 171.300781 C 127.792969 175.050781 124.691406 179.105469 121.988281 183.460938 L 121.988281 183.65625 C 121.730469 184.046875 121.5 184.46875 121.273438 184.859375 L 121.078125 185.183594 C 120.851562 185.574219 120.621094 185.933594 120.429688 186.320312 C 120.339844 186.445312 120.265625 186.574219 120.199219 186.710938 L 119.582031 187.851562 L 119.386719 188.242188 C 119.160156 188.628906 118.964844 189.019531 118.769531 189.410156 C 118.757812 189.53125 118.757812 189.648438 118.769531 189.769531 L 117.273438 190.972656 C 116.558594 192.46875 115.910156 193.964844 115.289062 195.492188 L 114.671875 196.824219 C 114.605469 196.972656 114.550781 197.121094 114.511719 197.28125 C 114.351562 197.652344 114.207031 198.03125 114.085938 198.417969 L 113.890625 198.96875 C 113.890625 199.328125 113.632812 199.71875 113.535156 200.074219 L 113.339844 200.695312 C 113.199219 201.054688 113.082031 201.425781 112.980469 201.800781 L 112.785156 202.417969 C 112.785156 202.773438 112.589844 203.164062 112.460938 203.523438 C 112.421875 203.734375 112.367188 203.9375 112.300781 204.140625 L 112.007812 205.277344 C 112.007812 205.472656 112.007812 205.636719 112.007812 205.796875 C 111.746094 206.871094 111.519531 207.945312 111.292969 209.050781 C 110.722656 211.777344 110.324219 214.53125 110.089844 217.308594 C 110.070312 217.527344 110.070312 217.742188 110.089844 217.960938 C 110.070312 218.273438 110.070312 218.589844 110.089844 218.902344 L 110.089844 222.445312 C 110.089844 223.160156 110.089844 223.878906 110.089844 224.558594 C 110.089844 225.113281 110.089844 225.664062 110.089844 226.21875 L 110.089844 226.769531 C 110.089844 227.226562 110.089844 227.648438 110.089844 228.070312 C 110.089844 229.175781 110.089844 230.25 110.28125 231.324219 C 110.28125 231.519531 110.28125 231.746094 110.28125 231.941406 L 110.28125 232.882812 C 110.28125 233.339844 110.28125 233.761719 110.28125 234.21875 C 110.28125 234.671875 110.28125 234.996094 110.28125 235.386719 L 110.28125 236.039062 C 110.28125 236.394531 110.28125 236.753906 110.445312 237.109375 C 110.609375 237.46875 110.445312 237.566406 110.445312 237.761719 L 110.640625 238.867188 L 110.640625 239.453125 C 111.03125 241.46875 111.484375 243.484375 112.039062 245.433594 L 112.039062 245.664062 L 112.429688 246.996094 L 112.429688 247.386719 C 112.429688 247.808594 112.722656 248.230469 112.851562 248.652344 L 112.851562 249.078125 C 112.851562 249.5 113.144531 249.921875 113.273438 250.34375 L 113.273438 250.703125 L 113.761719 252.035156 L 113.761719 252.296875 L 114.316406 253.726562 C 115.574219 256.871094 117.039062 259.914062 118.703125 262.863281 C 118.964844 263.351562 119.257812 263.839844 119.550781 264.324219 C 120.527344 265.984375 121.566406 267.578125 122.800781 269.171875 C 126.910156 274.964844 131.710938 280.113281 137.207031 284.617188 L 137.792969 285.101562 L 138.410156 285.625 L 139.417969 286.4375 L 140.328125 287.152344 L 140.914062 287.605469 L 141.921875 288.324219 L 142.214844 288.550781 L 143.382812 289.394531 C 147.480469 292.265625 151.816406 294.714844 156.390625 296.742188 L 157.949219 297.394531 C 162.945312 299.4375 168.089844 300.957031 173.394531 301.945312 L 175.347656 302.269531 C 176.289062 302.269531 177.296875 302.5625 178.273438 302.660156 L 178.957031 302.660156 C 180.796875 302.855469 182.683594 302.988281 184.613281 303.050781 L 194.496094 303.050781 C 195.796875 303.050781 197.097656 302.792969 198.398438 302.597656 L 199.894531 302.367188 C 201.390625 302.140625 202.855469 301.882812 204.285156 301.554688 L 204.738281 301.554688 L 205.976562 301.261719 L 206.527344 301.261719 L 207.730469 300.9375 L 208.25 300.9375 L 209.453125 300.613281 L 209.976562 300.613281 L 211.210938 300.253906 L 211.664062 300.253906 L 212.933594 299.832031 L 213.226562 299.832031 C 216.363281 298.730469 219.417969 297.441406 222.394531 295.964844 L 223.761719 295.25 L 225.160156 294.5 L 226.558594 293.71875 C 234.304688 289.175781 241.078125 283.472656 246.878906 276.617188 L 247.105469 276.355469 L 247.789062 275.542969 L 248.148438 275.089844 C 253.296875 268.652344 257.351562 261.585938 260.308594 253.890625 C 260.535156 253.367188 260.699219 252.847656 260.894531 252.328125 C 261.089844 251.808594 261.25 251.253906 261.445312 250.734375 C 263.339844 245.023438 264.542969 239.171875 265.054688 233.175781 C 265.28125 230.867188 265.378906 228.527344 265.378906 226.152344 L 265.378906 225.535156 C 265.398438 225.285156 265.398438 225.035156 265.378906 224.789062 C 266.519531 221.339844 266.421875 219.359375 266.257812 217.4375 Z M 266.257812 217.4375 " fill-opacity="1" fill-rule="nonzero"/></g><path fill="#ffffff" d="M 268.394531 245.652344 C 268.429688 246.039062 268.449219 246.433594 268.449219 246.828125 C 268.449219 247.46875 268.402344 248.097656 268.3125 248.710938 C 268.21875 248.738281 268.125 248.765625 268.03125 248.792969 C 267.992188 248.804688 267.957031 248.816406 267.921875 248.828125 C 267.785156 248.867188 267.65625 248.90625 267.523438 248.945312 C 267.390625 248.980469 267.253906 249.019531 267.121094 249.058594 C 266.851562 249.136719 266.582031 249.210938 266.304688 249.289062 C 266.167969 249.324219 266.03125 249.363281 265.890625 249.398438 C 265.722656 249.449219 265.554688 249.492188 265.382812 249.539062 C 265.191406 249.589844 264.996094 249.640625 264.800781 249.691406 C 264.6875 249.71875 264.574219 249.75 264.460938 249.777344 C 264.082031 249.875 263.699219 249.972656 263.3125 250.070312 C 263.164062 250.105469 263.011719 250.140625 262.867188 250.179688 C 262.714844 250.214844 262.566406 250.25 262.417969 250.289062 C 262.410156 250.289062 262.402344 250.289062 262.394531 250.292969 C 262.25 250.328125 262.105469 250.359375 261.960938 250.394531 C 261.871094 250.414062 261.777344 250.4375 261.683594 250.460938 C 261.472656 250.507812 261.257812 250.558594 261.042969 250.609375 C 260.886719 250.644531 260.734375 250.679688 260.578125 250.710938 C 260.421875 250.75 260.261719 250.78125 260.105469 250.820312 C 259.632812 250.921875 259.15625 251.027344 258.671875 251.128906 C 258.441406 251.179688 258.210938 251.226562 257.980469 251.273438 C 257.886719 251.292969 257.789062 251.3125 257.691406 251.332031 C 257.535156 251.363281 257.371094 251.398438 257.210938 251.429688 C 256.875 251.5 256.539062 251.5625 256.199219 251.632812 C 256.03125 251.664062 255.859375 251.699219 255.691406 251.730469 C 255.257812 251.8125 254.816406 251.898438 254.367188 251.980469 C 254.257812 252.003906 254.148438 252.019531 254.035156 252.039062 C 253.902344 252.066406 253.765625 252.089844 253.628906 252.117188 C 253.453125 252.148438 253.277344 252.179688 253.101562 252.207031 C 252.851562 252.257812 252.597656 252.300781 252.34375 252.34375 C 252.222656 252.367188 252.101562 252.386719 251.976562 252.410156 C 251.699219 252.457031 251.417969 252.503906 251.132812 252.550781 C 250.992188 252.578125 250.851562 252.597656 250.710938 252.621094 C 250.570312 252.648438 250.429688 252.667969 250.285156 252.691406 C 250 252.742188 249.714844 252.785156 249.425781 252.832031 C 249.285156 252.855469 249.140625 252.878906 248.996094 252.902344 C 248.6875 252.953125 248.378906 253 248.066406 253.050781 C 247.792969 253.089844 247.515625 253.132812 247.242188 253.175781 C 247 253.210938 246.753906 253.25 246.507812 253.285156 C 246.160156 253.335938 245.808594 253.386719 245.457031 253.4375 C 245.308594 253.457031 245.15625 253.480469 245.007812 253.503906 C 244.253906 253.609375 243.488281 253.714844 242.71875 253.816406 C 242.566406 253.835938 242.410156 253.859375 242.253906 253.878906 C 241.789062 253.941406 241.324219 254 240.851562 254.058594 C 240.378906 254.117188 239.90625 254.175781 239.429688 254.238281 C 239.425781 254.238281 239.417969 254.238281 239.414062 254.238281 C 239.179688 254.265625 238.9375 254.296875 238.703125 254.324219 C 237.984375 254.410156 237.261719 254.496094 236.535156 254.574219 C 236.371094 254.59375 236.207031 254.613281 236.046875 254.628906 C 235.882812 254.648438 235.71875 254.664062 235.554688 254.683594 C 234.96875 254.746094 234.382812 254.8125 233.789062 254.871094 C 233.367188 254.914062 232.9375 254.957031 232.507812 255.003906 C 232.195312 255.035156 231.878906 255.066406 231.558594 255.09375 C 231.222656 255.128906 230.886719 255.160156 230.546875 255.191406 C 230.035156 255.242188 229.523438 255.289062 229.007812 255.332031 C 228.835938 255.347656 228.664062 255.367188 228.492188 255.378906 C 228.148438 255.410156 227.800781 255.441406 227.453125 255.46875 C 226.945312 255.511719 226.433594 255.554688 225.917969 255.597656 C 225.910156 255.597656 225.898438 255.597656 225.886719 255.601562 C 225.539062 255.628906 225.1875 255.660156 224.835938 255.683594 C 224.519531 255.710938 224.207031 255.734375 223.890625 255.757812 C 223.761719 255.765625 223.628906 255.777344 223.5 255.789062 C 223.238281 255.808594 222.972656 255.828125 222.707031 255.847656 C 222.648438 255.851562 222.585938 255.855469 222.523438 255.859375 C 222.230469 255.878906 221.933594 255.902344 221.636719 255.925781 C 221.277344 255.949219 220.917969 255.972656 220.558594 256 C 220.292969 256.015625 220.027344 256.03125 219.761719 256.050781 C 219.070312 256.097656 218.367188 256.140625 217.664062 256.183594 C 217.429688 256.199219 217.195312 256.210938 216.960938 256.226562 C 216.335938 256.265625 215.707031 256.296875 215.078125 256.332031 C 214.792969 256.347656 214.507812 256.363281 214.222656 256.378906 C 213.375 256.421875 212.519531 256.464844 211.660156 256.507812 C 211.304688 256.523438 210.949219 256.539062 210.589844 256.554688 C 210.570312 256.558594 210.542969 256.558594 210.519531 256.558594 C 210.167969 256.574219 209.8125 256.589844 209.457031 256.605469 C 209.148438 256.617188 208.84375 256.628906 208.535156 256.640625 C 208.082031 256.660156 207.628906 256.679688 207.171875 256.695312 C 206.910156 256.707031 206.644531 256.714844 206.382812 256.722656 C 205.75 256.746094 205.117188 256.765625 204.476562 256.785156 C 204.222656 256.792969 203.964844 256.804688 203.707031 256.808594 C 203.523438 256.8125 203.34375 256.820312 203.160156 256.824219 C 202.664062 256.839844 202.164062 256.851562 201.664062 256.863281 C 201.167969 256.878906 200.664062 256.890625 200.164062 256.902344 C 199.78125 256.910156 199.402344 256.917969 199.023438 256.921875 C 198.34375 256.9375 197.660156 256.949219 196.976562 256.960938 C 196.523438 256.964844 196.066406 256.972656 195.609375 256.976562 C 194.59375 256.992188 193.570312 257 192.542969 257.007812 C 192.03125 257.007812 191.515625 257.015625 191 257.015625 L 190.855469 257.015625 C 190.648438 257.015625 190.4375 257.015625 190.226562 257.015625 C 189.96875 257.015625 189.710938 257.015625 189.449219 257.015625 C 189.191406 257.015625 188.933594 257.015625 188.675781 257.015625 C 188.464844 257.015625 188.253906 257.015625 188.042969 257.015625 L 187.902344 257.015625 C 187.386719 257.015625 186.871094 257.007812 186.355469 257.007812 C 185.074219 257 183.796875 256.988281 182.527344 256.96875 C 182.328125 256.964844 182.128906 256.960938 181.929688 256.960938 C 181.246094 256.949219 180.5625 256.9375 179.882812 256.921875 C 179.5 256.917969 179.117188 256.910156 178.738281 256.902344 C 177.890625 256.882812 177.042969 256.863281 176.203125 256.835938 C 175.867188 256.828125 175.53125 256.820312 175.195312 256.808594 C 174.917969 256.804688 174.644531 256.792969 174.367188 256.78125 C 173.773438 256.765625 173.183594 256.746094 172.597656 256.726562 C 172.308594 256.714844 172.019531 256.707031 171.730469 256.695312 C 171.300781 256.679688 170.871094 256.660156 170.445312 256.644531 C 169.753906 256.617188 169.066406 256.589844 168.378906 256.558594 C 166.820312 256.488281 165.277344 256.414062 163.75 256.328125 C 163.425781 256.3125 163.101562 256.292969 162.78125 256.273438 C 162.023438 256.230469 161.269531 256.1875 160.519531 256.140625 C 160.15625 256.117188 159.789062 256.09375 159.429688 256.070312 C 159.332031 256.0625 159.234375 256.058594 159.136719 256.050781 C 158.5625 256.011719 157.992188 255.972656 157.421875 255.933594 C 157.296875 255.925781 157.171875 255.917969 157.046875 255.90625 C 156.761719 255.886719 156.476562 255.867188 156.191406 255.847656 C 155.789062 255.816406 155.386719 255.789062 154.984375 255.757812 C 154.332031 255.707031 153.683594 255.652344 153.039062 255.605469 C 152.855469 255.589844 152.671875 255.570312 152.492188 255.554688 C 152.316406 255.542969 152.144531 255.527344 151.96875 255.511719 C 151.378906 255.464844 150.789062 255.414062 150.203125 255.359375 C 149.796875 255.328125 149.394531 255.289062 148.988281 255.25 C 148.949219 255.25 148.910156 255.246094 148.867188 255.242188 C 148.542969 255.210938 148.214844 255.179688 147.890625 255.148438 L 147.304688 255.089844 C 146.808594 255.042969 146.316406 254.996094 145.832031 254.945312 C 145.660156 254.925781 145.496094 254.910156 145.332031 254.894531 C 144.996094 254.859375 144.664062 254.824219 144.335938 254.789062 C 144.019531 254.753906 143.703125 254.722656 143.390625 254.6875 C 143.046875 254.648438 142.707031 254.613281 142.367188 254.574219 C 142.207031 254.558594 142.042969 254.539062 141.882812 254.519531 C 141.394531 254.464844 140.910156 254.410156 140.429688 254.351562 C 140.113281 254.3125 139.796875 254.273438 139.480469 254.238281 C 139.160156 254.199219 138.839844 254.160156 138.523438 254.117188 C 138.367188 254.101562 138.207031 254.078125 138.050781 254.058594 C 137.402344 253.976562 136.757812 253.894531 136.121094 253.808594 C 135.839844 253.769531 135.5625 253.734375 135.28125 253.695312 C 132.34375 253.292969 129.53125 252.859375 126.855469 252.394531 C 126.675781 252.367188 126.5 252.332031 126.320312 252.300781 C 125.78125 252.207031 125.246094 252.109375 124.71875 252.011719 C 124.554688 251.984375 124.390625 251.953125 124.226562 251.921875 C 124.171875 251.910156 124.113281 251.902344 124.058594 251.890625 C 123.792969 251.839844 123.523438 251.792969 123.261719 251.742188 C 123.238281 251.738281 123.222656 251.730469 123.203125 251.726562 C 123.03125 251.695312 122.863281 251.660156 122.695312 251.628906 C 122.492188 251.589844 122.285156 251.546875 122.078125 251.507812 C 121.785156 251.449219 121.492188 251.390625 121.199219 251.332031 C 120.871094 251.261719 120.542969 251.195312 120.222656 251.125 C 120.0625 251.089844 119.898438 251.058594 119.742188 251.023438 C 119.578125 250.988281 119.421875 250.957031 119.261719 250.917969 C 119.101562 250.886719 118.945312 250.851562 118.785156 250.816406 C 118.628906 250.78125 118.472656 250.746094 118.316406 250.710938 C 118.160156 250.675781 118.003906 250.640625 117.851562 250.605469 C 117.636719 250.558594 117.425781 250.507812 117.21875 250.460938 C 117.121094 250.4375 117.027344 250.414062 116.933594 250.390625 C 116.789062 250.359375 116.648438 250.328125 116.507812 250.292969 C 116.496094 250.289062 116.488281 250.289062 116.476562 250.285156 C 116.328125 250.246094 116.179688 250.210938 116.027344 250.175781 C 115.878906 250.140625 115.730469 250.105469 115.582031 250.066406 C 115.289062 249.996094 114.996094 249.921875 114.703125 249.847656 C 114.414062 249.773438 114.128906 249.699219 113.84375 249.625 C 113.761719 249.601562 113.675781 249.582031 113.59375 249.554688 C 113.542969 249.546875 113.492188 249.53125 113.441406 249.515625 C 113.332031 249.488281 113.222656 249.457031 113.113281 249.429688 C 112.890625 249.371094 112.667969 249.308594 112.453125 249.246094 C 112.402344 249.234375 112.359375 249.21875 112.3125 249.207031 C 112.304688 249.207031 112.300781 249.207031 112.296875 249.207031 C 112.273438 249.199219 112.25 249.195312 112.230469 249.1875 C 111.695312 249.039062 111.175781 248.886719 110.667969 248.734375 C 109.859375 248.492188 109.078125 248.242188 108.332031 247.996094 C 108.296875 247.984375 108.265625 247.972656 108.230469 247.960938 C 105.332031 246.363281 103.386719 243.453125 103.386719 240.128906 C 103.386719 235.773438 106.71875 232.136719 111.171875 231.222656 C 111.164062 231.191406 111.152344 231.160156 111.144531 231.128906 C 111.132812 231.09375 111.121094 231.058594 111.109375 231.023438 C 111.089844 230.96875 111.074219 230.910156 111.058594 230.855469 C 111.035156 230.777344 111.015625 230.703125 110.992188 230.632812 C 110.980469 230.582031 110.964844 230.53125 110.953125 230.480469 C 110.9375 230.421875 110.921875 230.359375 110.90625 230.296875 C 110.855469 230.097656 110.808594 229.894531 110.765625 229.6875 C 110.753906 229.621094 110.738281 229.558594 110.726562 229.492188 C 110.714844 229.4375 110.707031 229.382812 110.695312 229.328125 C 110.691406 229.304688 110.6875 229.28125 110.683594 229.257812 C 110.667969 229.160156 110.652344 229.0625 110.632812 228.960938 C 110.617188 228.855469 110.601562 228.746094 110.589844 228.636719 C 110.582031 228.5625 110.570312 228.484375 110.558594 228.410156 C 110.554688 228.371094 110.554688 228.332031 110.546875 228.292969 C 110.539062 228.207031 110.53125 228.121094 110.519531 228.035156 C 110.5 227.804688 110.488281 227.570312 110.476562 227.335938 C 110.472656 227.238281 110.46875 227.136719 110.464844 227.035156 L 110.464844 227.007812 C 110.464844 226.90625 110.460938 226.800781 110.460938 226.695312 C 110.460938 220.445312 114.285156 215.378906 119.003906 215.378906 C 119.480469 215.378906 119.949219 215.433594 120.402344 215.535156 C 119.519531 213.753906 119.003906 211.621094 119.003906 209.328125 C 119.003906 203.078125 122.828125 198.011719 127.542969 198.011719 C 129.457031 198.011719 131.226562 198.847656 132.652344 200.261719 C 132.769531 200.253906 132.886719 200.25 133.003906 200.25 C 133.003906 194 136.828125 188.933594 141.546875 188.933594 C 143.023438 188.933594 144.414062 189.433594 145.628906 190.308594 C 146.910156 185.566406 151.0625 182.09375 155.992188 182.09375 C 160.597656 182.09375 164.527344 185.128906 166.070312 189.398438 C 166.65625 188.824219 167.308594 188.328125 168.003906 187.917969 C 169.691406 184.445312 172.929688 182.09375 176.644531 182.09375 C 180.699219 182.09375 184.179688 184.886719 185.703125 188.886719 C 187.339844 187.511719 189.355469 186.699219 191.542969 186.699219 C 193.554688 186.699219 195.429688 187.386719 196.992188 188.574219 C 197.972656 183.511719 201.917969 179.722656 206.632812 179.722656 C 210.578125 179.722656 213.980469 182.371094 215.566406 186.195312 C 217.046875 185.179688 218.78125 184.59375 220.636719 184.59375 C 223.578125 184.59375 226.21875 186.066406 228.03125 188.402344 C 229.542969 187.324219 231.332031 186.699219 233.246094 186.699219 C 238.078125 186.699219 242.09375 190.664062 242.957031 195.910156 C 243.03125 195.910156 243.101562 195.910156 243.175781 195.910156 C 247.792969 195.910156 251.667969 199.53125 252.753906 204.433594 C 257.578125 205.179688 261.300781 209.914062 261.300781 215.644531 C 261.300781 218.835938 260.144531 221.714844 258.289062 223.773438 C 258.375 223.832031 258.457031 223.890625 258.535156 223.953125 C 258.542969 223.957031 258.546875 223.960938 258.550781 223.964844 C 258.625 224.019531 258.703125 224.082031 258.777344 224.140625 C 258.855469 224.203125 258.933594 224.269531 259.011719 224.335938 C 259.082031 224.394531 259.152344 224.457031 259.222656 224.519531 C 259.234375 224.53125 259.246094 224.542969 259.257812 224.550781 C 259.328125 224.617188 259.394531 224.683594 259.464844 224.746094 C 259.527344 224.808594 259.59375 224.871094 259.65625 224.9375 C 259.667969 224.945312 259.675781 224.953125 259.683594 224.964844 C 259.757812 225.035156 259.828125 225.109375 259.894531 225.1875 C 259.964844 225.265625 260.035156 225.339844 260.105469 225.421875 C 260.164062 225.488281 260.21875 225.554688 260.277344 225.625 C 260.296875 225.648438 260.316406 225.671875 260.339844 225.695312 C 260.390625 225.761719 260.441406 225.828125 260.492188 225.890625 C 260.503906 225.90625 260.515625 225.921875 260.527344 225.9375 C 260.582031 226.007812 260.636719 226.082031 260.691406 226.152344 C 260.75 226.238281 260.808594 226.320312 260.867188 226.40625 C 260.871094 226.40625 260.875 226.414062 260.875 226.414062 C 260.933594 226.5 260.992188 226.585938 261.046875 226.675781 C 261.097656 226.753906 261.148438 226.832031 261.195312 226.910156 C 261.234375 226.964844 261.265625 227.027344 261.300781 227.082031 C 261.347656 227.167969 261.398438 227.25 261.445312 227.335938 C 261.457031 227.359375 261.472656 227.382812 261.484375 227.40625 C 261.5 227.4375 261.519531 227.46875 261.535156 227.503906 L 261.539062 227.503906 C 261.550781 227.527344 261.5625 227.550781 261.578125 227.578125 C 261.59375 227.605469 261.605469 227.636719 261.621094 227.664062 C 261.671875 227.761719 261.722656 227.859375 261.769531 227.957031 C 261.773438 227.96875 261.78125 227.980469 261.785156 227.992188 C 261.878906 228.191406 261.964844 228.390625 262.050781 228.59375 C 262.074219 228.652344 262.097656 228.707031 262.117188 228.765625 C 262.140625 228.816406 262.160156 228.863281 262.175781 228.914062 C 262.199219 228.972656 262.222656 229.03125 262.242188 229.09375 C 262.265625 229.152344 262.28125 229.207031 262.300781 229.261719 C 262.382812 229.5 262.460938 229.742188 262.527344 229.988281 C 267.546875 230.460938 271.464844 234.347656 271.464844 239.066406 C 271.464844 241.65625 270.285156 243.992188 268.394531 245.652344 " fill-opacity="1" fill-rule="nonzero"/><g clip-path="url(#729468f231)"><path fill="#ff4a31" d="M 280.636719 237.570312 C 280.636719 237.546875 280.636719 237.527344 280.636719 237.507812 C 280.636719 237.519531 280.636719 237.527344 280.636719 237.539062 C 280.636719 237.527344 280.636719 237.511719 280.636719 237.496094 C 280.632812 237.457031 280.632812 237.414062 280.628906 237.371094 C 280.625 237.332031 280.625 237.289062 280.617188 237.246094 C 280.617188 237.214844 280.613281 237.183594 280.609375 237.152344 C 280.609375 237.125 280.601562 237.097656 280.601562 237.070312 C 280.597656 237.035156 280.589844 237 280.582031 236.960938 C 280.566406 236.855469 280.546875 236.746094 280.519531 236.636719 C 280.515625 236.613281 280.511719 236.597656 280.503906 236.578125 C 280.5 236.550781 280.492188 236.523438 280.484375 236.5 C 280.375 236.101562 280.210938 235.710938 279.992188 235.320312 C 279.976562 235.292969 279.960938 235.261719 279.941406 235.230469 C 279.777344 234.949219 279.582031 234.664062 279.359375 234.382812 C 279.277344 234.28125 279.195312 234.183594 279.109375 234.085938 C 279.042969 234.011719 278.976562 233.9375 278.902344 233.859375 C 278.871094 233.824219 278.839844 233.789062 278.804688 233.753906 C 278.773438 233.722656 278.738281 233.6875 278.703125 233.652344 C 278.667969 233.617188 278.632812 233.582031 278.601562 233.546875 C 278.5625 233.511719 278.53125 233.480469 278.492188 233.445312 C 278.421875 233.378906 278.351562 233.308594 278.277344 233.242188 C 278.199219 233.171875 278.121094 233.101562 278.039062 233.035156 C 278 232.996094 277.960938 232.964844 277.917969 232.929688 C 277.839844 232.863281 277.757812 232.792969 277.671875 232.726562 C 277.550781 232.625 277.421875 232.523438 277.289062 232.421875 C 277.285156 232.421875 277.285156 232.421875 277.285156 232.417969 C 277.195312 232.351562 277.105469 232.285156 277.011719 232.21875 C 276.964844 232.183594 276.917969 232.152344 276.871094 232.117188 C 276.824219 232.082031 276.777344 232.046875 276.726562 232.015625 C 276.679688 231.984375 276.632812 231.949219 276.582031 231.914062 C 276.339844 231.75 276.085938 231.582031 275.820312 231.417969 C 275.769531 231.382812 275.714844 231.351562 275.660156 231.320312 C 275.605469 231.285156 275.554688 231.25 275.496094 231.21875 C 275.445312 231.1875 275.386719 231.152344 275.332031 231.121094 C 274.832031 230.828125 274.300781 230.535156 273.738281 230.246094 C 273.621094 230.1875 273.503906 230.125 273.382812 230.0625 C 273.054688 229.902344 272.714844 229.742188 272.363281 229.582031 C 272.296875 229.546875 272.230469 229.515625 272.164062 229.484375 C 271.957031 229.390625 271.746094 229.296875 271.535156 229.207031 C 270.726562 228.855469 269.863281 228.507812 268.957031 228.164062 C 268.777344 228.09375 268.59375 228.027344 268.410156 227.957031 C 268.214844 227.886719 268.023438 227.820312 267.828125 227.75 C 267.644531 227.6875 267.460938 227.621094 267.273438 227.558594 C 267.175781 227.523438 267.078125 227.492188 266.984375 227.457031 C 266.886719 227.421875 266.789062 227.390625 266.691406 227.355469 C 266.496094 227.292969 266.292969 227.226562 266.09375 227.160156 C 265.996094 227.125 265.894531 227.09375 265.792969 227.0625 C 265.386719 226.929688 264.976562 226.800781 264.558594 226.671875 C 264.457031 226.640625 264.351562 226.609375 264.246094 226.574219 C 264.140625 226.542969 264.03125 226.511719 263.929688 226.480469 C 263.183594 226.257812 262.417969 226.039062 261.628906 225.820312 C 261.554688 225.800781 261.480469 225.777344 261.402344 225.757812 C 260.789062 225.59375 260.167969 225.429688 259.53125 225.269531 C 259.492188 225.257812 259.453125 225.246094 259.410156 225.234375 C 259.441406 225.296875 259.46875 225.351562 259.496094 225.414062 C 259.546875 225.519531 259.597656 225.625 259.640625 225.730469 C 259.648438 225.742188 259.652344 225.753906 259.660156 225.765625 C 259.75 225.976562 259.839844 226.195312 259.921875 226.414062 C 259.941406 226.476562 259.964844 226.539062 259.988281 226.597656 C 260.007812 226.652344 260.027344 226.707031 260.046875 226.757812 C 260.066406 226.824219 260.089844 226.886719 260.109375 226.953125 C 260.132812 227.011719 260.152344 227.074219 260.171875 227.132812 C 260.304688 227.558594 260.417969 227.992188 260.511719 228.441406 C 260.539062 228.5625 260.566406 228.683594 260.589844 228.808594 C 260.621094 228.988281 260.648438 229.164062 260.675781 229.34375 C 260.679688 229.367188 260.6875 229.394531 260.6875 229.421875 C 260.695312 229.476562 260.703125 229.53125 260.710938 229.585938 C 260.71875 229.644531 260.726562 229.703125 260.734375 229.761719 C 260.746094 229.851562 260.757812 229.941406 260.761719 230.027344 C 260.769531 230.078125 260.773438 230.128906 260.777344 230.183594 C 260.785156 230.246094 260.789062 230.3125 260.792969 230.382812 C 260.804688 230.46875 260.808594 230.558594 260.8125 230.648438 C 260.816406 230.691406 260.820312 230.738281 260.820312 230.785156 C 260.828125 230.851562 260.828125 230.921875 260.832031 230.984375 C 260.835938 231.054688 260.839844 231.121094 260.839844 231.191406 C 260.84375 231.328125 260.84375 231.460938 260.84375 231.597656 C 260.84375 231.71875 260.84375 231.835938 260.839844 231.953125 C 260.839844 232.019531 260.835938 232.085938 260.832031 232.152344 C 260.828125 232.285156 260.820312 232.417969 260.8125 232.550781 C 260.808594 232.628906 260.804688 232.699219 260.800781 232.773438 C 260.945312 232.839844 261.09375 232.902344 261.238281 232.96875 C 261.382812 233.03125 261.523438 233.09375 261.664062 233.160156 C 261.945312 233.289062 262.21875 233.421875 262.484375 233.554688 C 262.605469 233.617188 262.726562 233.675781 262.839844 233.738281 C 263.046875 233.84375 263.242188 233.949219 263.4375 234.054688 C 263.496094 234.085938 263.554688 234.121094 263.609375 234.152344 C 264.074219 234.414062 264.503906 234.679688 264.898438 234.945312 C 264.945312 234.976562 264.992188 235.007812 265.039062 235.042969 C 265.085938 235.074219 265.128906 235.101562 265.171875 235.136719 C 265.21875 235.167969 265.265625 235.199219 265.308594 235.230469 C 265.398438 235.296875 265.484375 235.363281 265.574219 235.425781 C 265.613281 235.457031 265.652344 235.488281 265.691406 235.515625 C 265.773438 235.582031 265.851562 235.644531 265.929688 235.710938 C 266 235.765625 266.066406 235.824219 266.132812 235.878906 C 266.328125 236.046875 266.511719 236.21875 266.679688 236.390625 C 266.710938 236.421875 266.746094 236.457031 266.773438 236.488281 C 267.066406 236.792969 267.3125 237.101562 267.515625 237.414062 C 267.539062 237.445312 267.5625 237.480469 267.585938 237.515625 C 267.699219 237.703125 267.800781 237.894531 267.886719 238.085938 C 267.917969 238.15625 267.945312 238.222656 267.96875 238.292969 C 267.996094 238.355469 268.019531 238.425781 268.039062 238.492188 C 268.050781 238.519531 268.058594 238.542969 268.0625 238.566406 C 268.09375 238.664062 268.117188 238.761719 268.136719 238.855469 C 268.140625 238.882812 268.144531 238.90625 268.148438 238.929688 C 268.15625 238.957031 268.160156 238.980469 268.164062 239.007812 C 268.167969 239.039062 268.171875 239.070312 268.175781 239.105469 C 268.175781 239.109375 268.175781 239.113281 268.175781 239.117188 C 268.183594 239.148438 268.1875 239.179688 268.1875 239.214844 C 268.191406 239.246094 268.195312 239.28125 268.199219 239.316406 C 268.203125 239.386719 268.203125 239.457031 268.203125 239.523438 C 268.203125 239.566406 268.203125 239.605469 268.203125 239.644531 C 268.199219 239.726562 268.191406 239.816406 268.183594 239.902344 C 268.175781 239.933594 268.171875 239.96875 268.167969 240 C 268.136719 240.226562 268.078125 240.457031 267.996094 240.675781 C 267.988281 240.703125 267.980469 240.730469 267.96875 240.753906 C 267.921875 240.890625 267.859375 241.027344 267.792969 241.160156 C 267.773438 241.195312 267.757812 241.230469 267.738281 241.261719 C 267.71875 241.300781 267.695312 241.34375 267.671875 241.382812 C 267.65625 241.410156 267.640625 241.4375 267.625 241.464844 C 267.605469 241.496094 267.585938 241.527344 267.5625 241.566406 C 267.527344 241.625 267.488281 241.683594 267.445312 241.742188 C 267.371094 241.847656 267.292969 241.957031 267.207031 242.0625 C 267.152344 242.128906 267.097656 242.195312 267.042969 242.261719 C 267.007812 242.300781 266.972656 242.339844 266.9375 242.378906 C 266.90625 242.417969 266.871094 242.457031 266.832031 242.496094 C 266.796875 242.53125 266.761719 242.570312 266.722656 242.609375 C 266.683594 242.648438 266.648438 242.6875 266.609375 242.726562 C 266.597656 242.734375 266.589844 242.746094 266.582031 242.753906 C 266.507812 242.824219 266.433594 242.894531 266.355469 242.964844 C 266.28125 243.035156 266.203125 243.105469 266.117188 243.175781 C 266.070312 243.214844 266.023438 243.257812 265.976562 243.296875 C 265.910156 243.351562 265.84375 243.40625 265.773438 243.460938 C 265.707031 243.515625 265.636719 243.570312 265.5625 243.625 C 265.492188 243.675781 265.421875 243.730469 265.347656 243.785156 C 265.246094 243.859375 265.144531 243.933594 265.039062 244.003906 C 264.988281 244.039062 264.933594 244.074219 264.878906 244.109375 C 264.808594 244.160156 264.730469 244.210938 264.652344 244.261719 C 264.640625 244.273438 264.628906 244.277344 264.613281 244.289062 C 264.539062 244.335938 264.460938 244.382812 264.386719 244.433594 C 264.296875 244.488281 264.207031 244.542969 264.117188 244.597656 C 263.976562 244.679688 263.832031 244.765625 263.6875 244.847656 C 263.5625 244.921875 263.429688 244.996094 263.296875 245.066406 C 263.203125 245.117188 263.109375 245.167969 263.015625 245.21875 C 263.011719 245.21875 263.007812 245.222656 263.003906 245.222656 C 262.808594 245.324219 262.605469 245.429688 262.398438 245.535156 C 262.292969 245.585938 262.1875 245.636719 262.082031 245.6875 C 261.992188 245.734375 261.894531 245.777344 261.804688 245.820312 C 261.765625 245.835938 261.726562 245.855469 261.691406 245.875 C 261.601562 245.914062 261.515625 245.953125 261.425781 245.996094 C 261.34375 246.03125 261.261719 246.070312 261.179688 246.105469 C 261.023438 246.171875 260.867188 246.242188 260.707031 246.3125 C 260.601562 246.355469 260.496094 246.398438 260.386719 246.445312 C 260.289062 246.488281 260.1875 246.53125 260.089844 246.570312 C 259.488281 246.816406 258.855469 247.058594 258.195312 247.296875 C 258.085938 247.339844 257.972656 247.375 257.859375 247.417969 C 257.78125 247.445312 257.703125 247.472656 257.621094 247.5 C 257.375 247.585938 257.125 247.671875 256.871094 247.757812 C 256.730469 247.804688 256.589844 247.851562 256.445312 247.898438 C 256.335938 247.933594 256.226562 247.96875 256.121094 248.003906 C 255.792969 248.109375 255.460938 248.210938 255.125 248.316406 C 255.117188 248.320312 255.109375 248.320312 255.097656 248.324219 C 254.957031 248.367188 254.8125 248.410156 254.671875 248.453125 C 254.367188 248.542969 254.058594 248.632812 253.746094 248.722656 C 253.742188 248.722656 253.742188 248.722656 253.742188 248.722656 C 253.425781 248.8125 253.109375 248.902344 252.785156 248.992188 C 252.636719 249.03125 252.484375 249.074219 252.335938 249.113281 C 252.324219 249.117188 252.3125 249.121094 252.296875 249.125 C 251.734375 249.273438 251.160156 249.421875 250.570312 249.566406 C 249.277344 249.894531 247.921875 250.203125 246.511719 250.503906 C 246.5 250.507812 246.488281 250.507812 246.480469 250.511719 C 246.117188 250.585938 245.75 250.664062 245.375 250.742188 C 244.996094 250.820312 244.609375 250.894531 244.21875 250.972656 C 244.023438 251.011719 243.828125 251.050781 243.632812 251.089844 C 243.339844 251.144531 243.042969 251.203125 242.742188 251.257812 C 242.445312 251.3125 242.140625 251.367188 241.839844 251.421875 C 241.433594 251.496094 241.023438 251.570312 240.613281 251.640625 C 240.609375 251.640625 240.605469 251.640625 240.601562 251.644531 C 240.195312 251.714844 239.78125 251.785156 239.367188 251.855469 C 239.15625 251.890625 238.949219 251.921875 238.734375 251.957031 C 238.101562 252.0625 237.457031 252.164062 236.808594 252.261719 C 235.941406 252.398438 235.058594 252.523438 234.164062 252.652344 C 233.941406 252.683594 233.71875 252.714844 233.492188 252.746094 C 233.265625 252.777344 233.039062 252.808594 232.8125 252.839844 C 232.472656 252.882812 232.128906 252.929688 231.785156 252.972656 C 231.441406 253.019531 231.097656 253.0625 230.746094 253.105469 C 230.285156 253.164062 229.820312 253.222656 229.347656 253.28125 C 228.878906 253.335938 228.402344 253.390625 227.925781 253.445312 C 227.6875 253.472656 227.449219 253.503906 227.210938 253.527344 C 226.730469 253.582031 226.25 253.632812 225.761719 253.683594 C 225.519531 253.710938 225.277344 253.738281 225.035156 253.761719 C 224.789062 253.789062 224.542969 253.8125 224.296875 253.835938 C 224.054688 253.863281 223.804688 253.890625 223.558594 253.910156 C 222.785156 253.988281 221.996094 254.0625 221.207031 254.132812 C 220.722656 254.179688 220.234375 254.222656 219.746094 254.265625 C 219.253906 254.308594 218.761719 254.347656 218.269531 254.390625 C 217.933594 254.414062 217.597656 254.441406 217.257812 254.46875 C 216.328125 254.542969 215.386719 254.609375 214.441406 254.675781 C 214.121094 254.699219 213.800781 254.71875 213.480469 254.742188 C 213.25 254.753906 213.015625 254.769531 212.78125 254.785156 C 210.371094 254.941406 207.910156 255.074219 205.40625 255.183594 C 205.082031 255.199219 204.757812 255.214844 204.433594 255.222656 C 203.773438 255.253906 203.113281 255.277344 202.445312 255.300781 C 202.128906 255.3125 201.808594 255.324219 201.488281 255.335938 C 201.320312 255.339844 201.152344 255.347656 200.980469 255.351562 C 200.804688 255.355469 200.625 255.363281 200.445312 255.367188 C 199.292969 255.402344 198.136719 255.433594 196.972656 255.457031 C 196.707031 255.464844 196.445312 255.46875 196.179688 255.472656 C 195.890625 255.480469 195.605469 255.484375 195.316406 255.492188 C 195.199219 255.492188 195.078125 255.496094 194.957031 255.496094 C 194.621094 255.5 194.285156 255.507812 193.949219 255.511719 C 193.828125 255.511719 193.707031 255.515625 193.585938 255.515625 C 193.300781 255.519531 193.007812 255.523438 192.71875 255.527344 C 192.503906 255.527344 192.285156 255.53125 192.074219 255.535156 C 191.839844 255.539062 191.609375 255.539062 191.378906 255.539062 C 190.78125 255.542969 190.183594 255.546875 189.585938 255.550781 C 189.167969 255.550781 188.753906 255.550781 188.335938 255.550781 C 187.917969 255.550781 187.507812 255.550781 187.089844 255.550781 C 186.820312 255.550781 186.546875 255.546875 186.277344 255.546875 C 186.085938 255.546875 185.890625 255.542969 185.699219 255.542969 C 185.460938 255.542969 185.21875 255.539062 184.980469 255.539062 C 184.636719 255.535156 184.296875 255.53125 183.953125 255.527344 C 183.660156 255.523438 183.375 255.519531 183.082031 255.515625 C 182.5 255.511719 181.925781 255.5 181.351562 255.492188 C 181.0625 255.484375 180.777344 255.480469 180.488281 255.472656 C 180.257812 255.46875 180.027344 255.464844 179.796875 255.460938 C 179.554688 255.453125 179.316406 255.449219 179.078125 255.445312 C 178.769531 255.4375 178.46875 255.429688 178.167969 255.421875 C 177.832031 255.414062 177.5 255.402344 177.167969 255.398438 C 176.914062 255.390625 176.660156 255.382812 176.40625 255.375 C 176.0625 255.363281 175.71875 255.351562 175.375 255.339844 C 175.09375 255.332031 174.8125 255.320312 174.53125 255.3125 C 174.363281 255.304688 174.199219 255.300781 174.035156 255.296875 C 173.761719 255.285156 173.488281 255.273438 173.21875 255.261719 C 172.9375 255.253906 172.65625 255.242188 172.375 255.230469 C 171.148438 255.179688 169.929688 255.125 168.722656 255.0625 C 168.449219 255.050781 168.175781 255.035156 167.90625 255.019531 C 167.636719 255.007812 167.367188 254.992188 167.101562 254.980469 C 167.089844 254.980469 167.082031 254.976562 167.074219 254.976562 C 166.808594 254.960938 166.542969 254.949219 166.285156 254.929688 C 166.011719 254.914062 165.746094 254.898438 165.476562 254.882812 C 164.9375 254.851562 164.40625 254.816406 163.875 254.785156 C 163.679688 254.769531 163.492188 254.757812 163.296875 254.746094 C 163.179688 254.742188 163.0625 254.730469 162.941406 254.722656 C 162.460938 254.691406 161.976562 254.65625 161.496094 254.621094 C 161.234375 254.601562 160.972656 254.585938 160.714844 254.566406 C 159.929688 254.507812 159.152344 254.449219 158.382812 254.386719 C 157.875 254.34375 157.367188 254.300781 156.863281 254.257812 C 156.851562 254.257812 156.847656 254.257812 156.839844 254.257812 C 156.378906 254.214844 155.925781 254.175781 155.46875 254.132812 C 154.878906 254.082031 154.292969 254.027344 153.710938 253.972656 C 153.261719 253.925781 152.8125 253.882812 152.371094 253.835938 C 152.074219 253.808594 151.773438 253.777344 151.476562 253.746094 C 151.074219 253.703125 150.667969 253.660156 150.265625 253.617188 C 149.746094 253.558594 149.230469 253.503906 148.714844 253.445312 C 148.507812 253.417969 148.296875 253.394531 148.09375 253.371094 C 147.46875 253.300781 146.855469 253.222656 146.242188 253.148438 C 145.429688 253.042969 144.621094 252.941406 143.828125 252.832031 C 143.601562 252.804688 143.375 252.773438 143.148438 252.742188 C 142.472656 252.648438 141.804688 252.550781 141.144531 252.453125 C 140.921875 252.421875 140.703125 252.390625 140.484375 252.355469 C 139.609375 252.226562 138.75 252.089844 137.902344 251.953125 C 137.78125 251.933594 137.65625 251.910156 137.535156 251.890625 C 136.820312 251.773438 136.121094 251.652344 135.429688 251.53125 C 135.21875 251.492188 135.007812 251.453125 134.796875 251.417969 C 134.59375 251.378906 134.394531 251.34375 134.195312 251.308594 C 133.191406 251.121094 132.214844 250.929688 131.257812 250.734375 C 131.070312 250.695312 130.878906 250.65625 130.691406 250.613281 C 130.523438 250.582031 130.359375 250.546875 130.191406 250.511719 C 130.171875 250.503906 130.148438 250.5 130.128906 250.496094 C 129.941406 250.457031 129.753906 250.417969 129.570312 250.375 C 129.386719 250.335938 129.199219 250.296875 129.019531 250.257812 C 128.871094 250.222656 128.722656 250.191406 128.578125 250.160156 C 128.472656 250.132812 128.367188 250.109375 128.261719 250.085938 C 128.050781 250.039062 127.839844 249.992188 127.632812 249.941406 C 127.53125 249.914062 127.425781 249.890625 127.324219 249.867188 C 127.171875 249.828125 127.023438 249.796875 126.875 249.757812 C 126.527344 249.675781 126.179688 249.589844 125.839844 249.503906 C 125.671875 249.460938 125.503906 249.417969 125.335938 249.375 C 125.292969 249.363281 125.253906 249.351562 125.207031 249.34375 C 124.914062 249.265625 124.625 249.191406 124.339844 249.113281 C 124.339844 249.113281 124.339844 249.113281 124.335938 249.113281 C 124.175781 249.070312 124.011719 249.023438 123.851562 248.980469 C 123.539062 248.894531 123.234375 248.808594 122.929688 248.722656 C 122.914062 248.71875 122.902344 248.714844 122.894531 248.714844 C 122.667969 248.648438 122.449219 248.585938 122.226562 248.519531 C 122.007812 248.453125 121.792969 248.390625 121.574219 248.324219 C 121.554688 248.316406 121.535156 248.308594 121.515625 248.304688 C 121.410156 248.269531 121.304688 248.238281 121.199219 248.207031 C 120.890625 248.113281 120.582031 248.015625 120.285156 247.917969 C 120.253906 247.90625 120.222656 247.898438 120.195312 247.886719 C 119.90625 247.792969 119.625 247.699219 119.347656 247.605469 C 119.167969 247.542969 118.988281 247.480469 118.8125 247.417969 C 118.71875 247.382812 118.625 247.347656 118.53125 247.316406 C 118.394531 247.269531 118.265625 247.21875 118.132812 247.171875 C 118.125 247.167969 118.117188 247.164062 118.109375 247.164062 C 117.988281 247.117188 117.863281 247.074219 117.742188 247.027344 C 117.371094 246.886719 117.007812 246.742188 116.65625 246.601562 C 116.609375 246.578125 116.558594 246.558594 116.511719 246.539062 C 116.425781 246.503906 116.339844 246.46875 116.253906 246.433594 C 116.007812 246.328125 115.761719 246.222656 115.527344 246.117188 C 115.429688 246.074219 115.335938 246.03125 115.242188 245.992188 C 114.878906 245.824219 114.527344 245.660156 114.191406 245.492188 C 114.105469 245.449219 114.023438 245.40625 113.941406 245.363281 C 113.84375 245.316406 113.75 245.265625 113.660156 245.21875 C 113.355469 245.058594 113.066406 244.898438 112.789062 244.734375 C 112.699219 244.683594 112.609375 244.628906 112.523438 244.578125 C 112.34375 244.46875 112.175781 244.359375 112.007812 244.253906 C 111.882812 244.171875 111.757812 244.089844 111.636719 244.003906 C 111.589844 243.972656 111.546875 243.941406 111.5 243.910156 C 111.433594 243.863281 111.371094 243.816406 111.308594 243.769531 C 111.15625 243.660156 111.015625 243.550781 110.878906 243.441406 C 110.871094 243.4375 110.867188 243.433594 110.863281 243.433594 C 110.800781 243.378906 110.738281 243.328125 110.675781 243.277344 C 110.628906 243.238281 110.585938 243.203125 110.542969 243.164062 C 110.5 243.125 110.457031 243.089844 110.414062 243.050781 C 110.410156 243.046875 110.40625 243.046875 110.40625 243.046875 C 110.324219 242.972656 110.246094 242.894531 110.167969 242.824219 C 109.960938 242.625 109.773438 242.425781 109.601562 242.226562 C 109.546875 242.160156 109.492188 242.09375 109.4375 242.023438 C 109.421875 242.003906 109.40625 241.984375 109.390625 241.964844 C 109.367188 241.929688 109.339844 241.898438 109.316406 241.863281 C 109.148438 241.632812 109.003906 241.398438 108.882812 241.160156 C 108.867188 241.128906 108.847656 241.09375 108.832031 241.058594 C 108.785156 240.960938 108.742188 240.855469 108.703125 240.753906 C 108.695312 240.730469 108.683594 240.703125 108.675781 240.675781 C 108.621094 240.527344 108.578125 240.375 108.546875 240.226562 C 108.539062 240.191406 108.53125 240.160156 108.527344 240.125 C 108.519531 240.097656 108.515625 240.070312 108.511719 240.039062 C 108.507812 240.015625 108.503906 239.988281 108.5 239.964844 C 108.496094 239.9375 108.492188 239.90625 108.492188 239.878906 C 108.488281 239.851562 108.484375 239.820312 108.480469 239.792969 C 108.476562 239.746094 108.476562 239.691406 108.472656 239.644531 C 108.472656 239.605469 108.46875 239.5625 108.46875 239.523438 C 108.46875 239.453125 108.472656 239.378906 108.480469 239.308594 C 108.480469 239.277344 108.480469 239.246094 108.488281 239.214844 C 108.488281 239.179688 108.492188 239.144531 108.496094 239.109375 C 108.507812 239.035156 108.519531 238.964844 108.53125 238.894531 C 108.535156 238.859375 108.542969 238.832031 108.550781 238.800781 C 108.613281 238.527344 108.707031 238.253906 108.832031 237.984375 C 108.851562 237.949219 108.867188 237.917969 108.882812 237.882812 C 109.003906 237.648438 109.148438 237.414062 109.316406 237.183594 C 109.339844 237.148438 109.367188 237.113281 109.390625 237.082031 C 109.542969 236.882812 109.710938 236.6875 109.898438 236.488281 C 109.929688 236.457031 109.960938 236.421875 109.996094 236.390625 C 110.1875 236.195312 110.398438 236 110.628906 235.808594 C 110.667969 235.773438 110.707031 235.742188 110.742188 235.710938 C 110.785156 235.675781 110.824219 235.644531 110.863281 235.613281 C 110.945312 235.546875 111.023438 235.484375 111.109375 235.421875 C 111.191406 235.355469 111.28125 235.292969 111.367188 235.230469 C 111.453125 235.167969 111.546875 235.101562 111.636719 235.042969 C 111.636719 235.039062 111.636719 235.039062 111.636719 235.039062 C 111.683594 235.007812 111.730469 234.976562 111.773438 234.945312 C 111.824219 234.914062 111.871094 234.882812 111.917969 234.851562 C 111.964844 234.820312 112.011719 234.789062 112.0625 234.757812 C 112.207031 234.664062 112.355469 234.570312 112.511719 234.476562 C 112.5625 234.445312 112.613281 234.414062 112.667969 234.378906 C 112.71875 234.351562 112.773438 234.320312 112.824219 234.289062 C 112.933594 234.226562 113.039062 234.164062 113.152344 234.105469 C 113.261719 234.042969 113.375 233.980469 113.488281 233.917969 C 113.523438 233.898438 113.558594 233.882812 113.59375 233.863281 C 113.417969 233.660156 113.25 233.441406 113.085938 233.214844 C 113.050781 233.171875 113.019531 233.128906 112.988281 233.085938 C 112.957031 233.039062 112.921875 232.992188 112.894531 232.949219 C 112.796875 232.808594 112.707031 232.664062 112.613281 232.519531 C 112.585938 232.472656 112.554688 232.425781 112.527344 232.378906 C 112.492188 232.320312 112.457031 232.261719 112.425781 232.203125 C 112.371094 232.113281 112.320312 232.023438 112.273438 231.933594 C 112.230469 231.859375 112.191406 231.78125 112.148438 231.707031 C 112.117188 231.636719 112.078125 231.570312 112.046875 231.503906 C 112.007812 231.421875 111.96875 231.34375 111.929688 231.261719 C 111.902344 231.207031 111.875 231.148438 111.851562 231.089844 C 111.652344 230.660156 111.472656 230.207031 111.3125 229.742188 C 111.289062 229.679688 111.269531 229.613281 111.25 229.546875 C 111.226562 229.472656 111.203125 229.394531 111.175781 229.316406 C 111.160156 229.261719 111.140625 229.199219 111.125 229.144531 C 111.113281 229.105469 111.101562 229.070312 111.09375 229.03125 C 111.074219 228.972656 111.058594 228.910156 111.042969 228.847656 C 111.019531 228.769531 111 228.6875 110.976562 228.609375 C 110.964844 228.554688 110.949219 228.5 110.9375 228.445312 C 110.921875 228.382812 110.90625 228.316406 110.890625 228.25 C 110.839844 228.03125 110.796875 227.8125 110.753906 227.589844 C 110.738281 227.519531 110.726562 227.449219 110.714844 227.382812 C 110.699219 227.296875 110.6875 227.214844 110.671875 227.128906 C 110.648438 227.136719 110.625 227.144531 110.601562 227.152344 C 109.902344 227.382812 109.226562 227.613281 108.574219 227.851562 C 108.4375 227.898438 108.304688 227.945312 108.171875 227.996094 C 107.90625 228.09375 107.644531 228.191406 107.386719 228.289062 C 107.253906 228.339844 107.128906 228.386719 107 228.441406 C 106.902344 228.480469 106.804688 228.515625 106.703125 228.554688 C 106.550781 228.617188 106.398438 228.679688 106.25 228.738281 C 106.125 228.789062 106.003906 228.839844 105.882812 228.890625 C 105.761719 228.941406 105.640625 228.988281 105.523438 229.042969 C 105.0625 229.238281 104.621094 229.433594 104.191406 229.632812 C 104.175781 229.640625 104.160156 229.652344 104.144531 229.65625 C 103.589844 229.917969 103.0625 230.175781 102.558594 230.441406 C 102.460938 230.492188 102.363281 230.546875 102.265625 230.601562 C 102.253906 230.605469 102.242188 230.609375 102.234375 230.617188 C 102.144531 230.664062 102.058594 230.714844 101.972656 230.761719 C 101.875 230.8125 101.78125 230.867188 101.6875 230.921875 C 101.609375 230.964844 101.527344 231.011719 101.445312 231.058594 C 101.433594 231.066406 101.421875 231.070312 101.410156 231.082031 C 101.316406 231.132812 101.230469 231.1875 101.140625 231.242188 C 100.78125 231.457031 100.441406 231.675781 100.121094 231.894531 C 100.042969 231.949219 99.960938 232.003906 99.882812 232.058594 C 99.804688 232.117188 99.726562 232.171875 99.652344 232.226562 C 99.574219 232.28125 99.5 232.335938 99.429688 232.390625 C 99.414062 232.402344 99.398438 232.410156 99.386719 232.421875 C 99.324219 232.46875 99.265625 232.511719 99.210938 232.558594 C 99.136719 232.613281 99.070312 232.671875 99 232.726562 C 98.789062 232.898438 98.589844 233.066406 98.402344 233.238281 C 98.339844 233.292969 98.285156 233.34375 98.226562 233.398438 C 98.171875 233.457031 98.113281 233.507812 98.058594 233.5625 C 98.046875 233.574219 98.039062 233.582031 98.03125 233.59375 C 97.980469 233.644531 97.933594 233.691406 97.882812 233.742188 C 97.828125 233.800781 97.773438 233.855469 97.722656 233.914062 C 97.675781 233.964844 97.628906 234.015625 97.585938 234.066406 C 97.578125 234.074219 97.574219 234.078125 97.570312 234.085938 C 97.515625 234.140625 97.46875 234.203125 97.421875 234.257812 C 97.375 234.3125 97.328125 234.371094 97.285156 234.425781 C 97.28125 234.425781 97.28125 234.429688 97.28125 234.429688 C 97.238281 234.484375 97.195312 234.542969 97.152344 234.597656 C 97.152344 234.601562 97.148438 234.601562 97.144531 234.609375 C 97.058594 234.722656 96.976562 234.835938 96.90625 234.953125 C 96.867188 235.007812 96.832031 235.070312 96.792969 235.128906 C 96.761719 235.183594 96.722656 235.242188 96.691406 235.300781 C 96.660156 235.355469 96.628906 235.410156 96.601562 235.464844 C 96.570312 235.523438 96.539062 235.589844 96.507812 235.65625 C 96.484375 235.703125 96.460938 235.753906 96.441406 235.800781 C 96.40625 235.871094 96.378906 235.9375 96.355469 236.007812 C 96.332031 236.066406 96.308594 236.128906 96.289062 236.1875 C 96.265625 236.242188 96.25 236.296875 96.234375 236.351562 C 96.230469 236.359375 96.230469 236.367188 96.226562 236.375 C 96.210938 236.425781 96.195312 236.480469 96.179688 236.535156 C 96.179688 236.539062 96.175781 236.546875 96.175781 236.550781 C 96.164062 236.601562 96.152344 236.648438 96.140625 236.699219 C 96.136719 236.707031 96.136719 236.71875 96.132812 236.730469 C 96.121094 236.785156 96.109375 236.84375 96.101562 236.898438 C 96.089844 236.960938 96.082031 237.019531 96.074219 237.082031 C 96.066406 237.136719 96.0625 237.191406 96.054688 237.246094 C 96.050781 237.292969 96.046875 237.335938 96.046875 237.382812 C 96.042969 237.421875 96.042969 237.457031 96.039062 237.492188 C 96.039062 237.511719 96.039062 237.53125 96.039062 237.550781 C 96.039062 237.535156 96.039062 237.519531 96.039062 237.507812 C 96.039062 237.535156 96.039062 237.5625 96.039062 237.589844 C 96.039062 237.601562 96.039062 237.613281 96.039062 237.621094 C 96.039062 237.644531 96.039062 237.664062 96.039062 237.683594 C 96.105469 272.667969 115.628906 303.082031 144.371094 318.683594 C 144.339844 318.992188 144.324219 319.300781 144.324219 319.613281 C 144.324219 331.3125 164.027344 340.796875 188.335938 340.796875 C 212.648438 340.796875 232.351562 331.3125 232.351562 319.613281 C 232.351562 319.300781 232.332031 318.988281 232.304688 318.679688 C 261.027344 303.089844 280.546875 272.695312 280.636719 237.738281 C 280.636719 237.699219 280.636719 237.660156 280.636719 237.621094 C 280.636719 237.601562 280.636719 237.585938 280.636719 237.570312 " fill-opacity="1" fill-rule="nonzero"/></g></svg>